<?xml version="1.0" encoding="utf-8"?>
<!-- Generator: Adobe Illustrator 16.0.0, SVG Export Plug-In . SVG Version: 6.00 Build 0)  -->
<!DOCTYPE svg PUBLIC "-//W3C//DTD SVG 1.1//EN" "http://www.w3.org/Graphics/SVG/1.1/DTD/svg11.dtd">
<svg version="1.1" id="Layer_1" xmlns="http://www.w3.org/2000/svg" xmlns:xlink="http://www.w3.org/1999/xlink" x="0px" y="0px"
	 width="200px" height="200px" viewBox="197.499 320.945 200 200" enable-background="new 197.499 320.945 200 200"
	 xml:space="preserve">
<path display="none" fill="#813996" d="M297.64,326.142c12.816,0,25.23,2.501,36.902,7.442c11.303,4.786,21.432,11.611,30.14,20.319
	c8.709,8.708,15.532,18.837,20.319,30.139c4.94,11.673,7.442,24.086,7.442,36.902s-2.502,25.229-7.442,36.901
	c-4.787,11.304-11.61,21.432-20.319,30.141c-8.708,8.708-18.837,15.532-30.14,20.319c-11.672,4.94-24.086,7.441-36.902,7.441
	c-12.815,0-25.229-2.501-36.902-7.441c-11.302-4.787-21.431-11.611-30.14-20.319c-8.708-8.709-15.532-18.837-20.319-30.141
	c-4.941-11.672-7.442-24.086-7.442-36.901c0-12.816,2.501-25.23,7.442-36.902c4.787-11.302,11.611-21.431,20.319-30.139
	c8.708-8.708,18.837-15.533,30.14-20.319C272.41,328.643,284.824,326.142,297.64,326.142 M297.64,322.127
	c-54.566,0-98.818,44.251-98.818,98.817s44.252,98.818,98.818,98.818s98.818-44.252,98.818-98.818S352.206,322.127,297.64,322.127
	L297.64,322.127z"/>
<g display="none">
	<g display="inline">
		<path fill="#813996" d="M321.895,415.878c-0.009,0-0.019,0-0.027,0h-11.439v-11.468c0.016-2.313-1.847-4.201-4.16-4.216
			c-0.009,0-0.019,0-0.028,0h-16.526c-2.313,0-4.188,1.875-4.188,4.188v11.467h-11.439c-2.312-0.016-4.2,1.847-4.216,4.159
			c0,0.019,0,0.038,0,0.056v16.499c0,2.312,1.875,4.188,4.188,4.188h11.468v11.439c-0.015,2.312,1.847,4.2,4.16,4.216
			c0.009,0,0.019,0,0.028,0h16.499c2.312,0,4.188-1.875,4.188-4.188l0,0v-11.468h11.467c2.313,0.016,4.201-1.847,4.216-4.159
			c0-0.01,0-0.02,0-0.028v-16.499C326.084,417.753,324.209,415.878,321.895,415.878z M320.463,435.131h-12.845
			c-1.552,0-2.812,1.259-2.812,2.811v12.845h-13.659v-12.845c0-1.552-1.258-2.811-2.811-2.811h-12.844v-13.632h12.844
			c1.552,0,2.811-1.258,2.811-2.81v-12.874h13.632v12.845c0,1.552,1.258,2.811,2.811,2.811h12.873V435.131z"/>
	</g>
</g>
<g display="none">
	<g display="inline">
		<path fill="#813996" d="M346.882,379.171L346.882,379.171h-23.159v-9.894c0.146-4.515-3.396-8.292-7.911-8.438
			c-0.229-0.007-0.46-0.005-0.69,0.007h-34.289c-4.511-0.235-8.358,3.231-8.594,7.742c-0.012,0.229-0.014,0.46-0.007,0.689v9.837
			h-23.159c-8.938,0-19.394,5.088-19.394,19.394v61.131c0,14.307,10.456,19.394,19.394,19.394h97.81
			c8.938,0,19.394-5.087,19.394-19.394v-61.075C366.275,384.259,355.848,379.171,346.882,379.171z M277.853,369.277
			c0-0.814,0-3.007,3.007-3.007h34.262c3.008,0,3.008,2.165,3.008,3.007v9.837h-40.276V369.277z M360.654,459.64
			c0,12.423-9.612,13.772-13.771,13.772h-97.811c-4.131,0-13.772-1.35-13.772-13.772v-61.075c0-12.423,9.612-13.772,13.772-13.772
			h97.81c4.132,0,13.772,1.349,13.772,13.772V459.64L360.654,459.64z"/>
	</g>
</g>
<path fill="#6BB640" d="M298.139,326.631c12.729,0,25.059,2.484,36.652,7.392c11.226,4.755,21.286,11.533,29.936,20.183
	c8.65,8.649,15.428,18.71,20.183,29.936c4.907,11.594,7.392,23.924,7.392,36.653s-2.484,25.059-7.392,36.653
	c-4.755,11.226-11.532,21.286-20.183,29.936c-8.649,8.649-18.71,15.428-29.936,20.183c-11.594,4.907-23.924,7.392-36.652,7.392
	c-12.729,0-25.06-2.484-36.653-7.392c-11.226-4.755-21.286-11.533-29.936-20.183s-15.428-18.71-20.182-29.936
	c-4.908-11.594-7.392-23.924-7.392-36.653s2.484-25.059,7.392-36.653c4.754-11.226,11.533-21.286,20.182-29.936
	s18.709-15.428,29.936-20.183C273.08,329.115,285.41,326.631,298.139,326.631 M298.139,322.644c-54.197,0-98.15,43.953-98.15,98.15
	s43.953,98.15,98.15,98.15s98.149-43.953,98.149-98.15S352.337,322.644,298.139,322.644L298.139,322.644z"/>
<g>
	<g>
		<path fill="#6BB640" d="M368.382,432.424c-0.987-6.837-6.358-12.209-13.196-13.195v-4.047c0-11.165-8.486-20.256-18.919-20.256
			c-10.133,0-18.615,8.815-18.92,19.65h0.129l-0.129,0.022v43.864c0,14.023-10.484,25.41-23.371,25.41
			c-12.888,0-23.372-11.402-23.372-25.41v-3.799c3.227,0,6.677-2.34,6.677-8.903v-5.599c14.285-3.652,24.484-15.919,24.484-29.826
			v-4.641h-4.452l-0.093-28.97c-0.032-5.362-3.88-9.941-9.157-10.896c-1.139-3.487-4.889-5.392-8.375-4.253
			c-3.487,1.139-5.392,4.888-4.253,8.375c1.138,3.487,4.888,5.392,8.375,4.253c1.867-0.609,3.369-2.015,4.102-3.837
			c2.852,0.812,4.827,3.406,4.85,6.37l0.101,28.957h-4.452v4.705c-0.177,7.742-5.368,14.471-12.812,16.607
			c-3.983,1.264-8.259,1.264-12.242,0c-7.436-2.144-12.614-8.871-12.785-16.607v-4.705h-6.678v-28.937
			c0.013-3.009,2.036-5.638,4.941-6.419c1.354,3.448,5.249,5.146,8.697,3.791s5.146-5.249,3.791-8.697s-5.249-5.146-8.697-3.791
			c-1.869,0.733-3.311,2.267-3.929,4.176c-5.334,0.912-9.24,5.528-9.255,10.94v28.937h-4.451v4.63
			c0,13.922,10.205,26.193,24.484,29.837v5.599c0,6.563,3.45,8.903,6.677,8.903v3.799c0,16.472,12.48,29.862,27.824,29.862
			c15.342,0,27.822-13.406,27.822-29.862v-43.758c0.224-8.447,6.718-15.32,14.469-15.32c7.978,0,14.468,7.087,14.468,15.804v4.04
			c-8.517,1.228-14.425,9.13-13.195,17.646c1.229,8.518,9.13,14.425,17.646,13.196C363.703,448.842,369.611,440.94,368.382,432.424z
			 M281.733,370.081c-1.229,0-2.226-0.996-2.226-2.226s0.997-2.226,2.226-2.226s2.226,0.996,2.226,2.226
			S282.962,370.081,281.733,370.081z M255.022,365.63c1.229,0,2.226,0.996,2.226,2.226s-0.997,2.226-2.226,2.226
			c-1.229,0-2.226-0.996-2.226-2.226S253.793,365.63,255.022,365.63z M239.441,410.325v-0.179h6.678v0.254
			c0.167,9.675,6.604,18.117,15.888,20.841c4.866,1.54,10.088,1.54,14.954,0c9.289-2.72,15.731-11.163,15.901-20.841v-0.254h4.451
			v0.179c0,12.382-9.544,23.277-22.703,25.913c-3.09,0.619-6.255,0.773-9.391,0.461c-1.032-0.101-2.058-0.256-3.074-0.466
			C248.986,433.603,239.441,422.707,239.441,410.325z M266.152,450.212c-2.003,0-2.226-3.116-2.226-4.451v-4.724
			c0.178,0.022,0.36,0.031,0.541,0.049c0.223,0.024,0.445,0.042,0.668,0.062c1.053,0.093,2.115,0.155,3.185,0.158h0.111
			c1.069,0,2.128-0.065,3.174-0.158c0.223-0.021,0.459-0.038,0.688-0.062c0.176-0.02,0.358-0.026,0.534-0.049v4.724
			c0,1.335-0.222,4.451-2.226,4.451H266.152z M352.96,445.761c-6.146,0-11.129-4.983-11.129-11.13s4.982-11.129,11.129-11.129
			c6.147,0,11.13,4.982,11.13,11.129C364.082,440.774,359.103,445.753,352.96,445.761z"/>
	</g>
</g>
<g>
	<g>
		<path fill="#6BB640" d="M352.96,427.953c-3.688,0-6.677,2.99-6.677,6.678c0,3.688,2.989,6.678,6.677,6.678
			s6.678-2.989,6.678-6.678C359.637,430.943,356.647,427.953,352.96,427.953z M352.96,436.857c-1.229,0-2.226-0.997-2.226-2.227
			s0.997-2.226,2.226-2.226c1.229,0,2.226,0.996,2.226,2.226S354.189,436.857,352.96,436.857z"/>
	</g>
</g>
</svg>
