<?xml version="1.0" encoding="utf-8"?>
<!-- Generator: Adobe Illustrator 16.0.0, SVG Export Plug-In . SVG Version: 6.00 Build 0)  -->
<!DOCTYPE svg PUBLIC "-//W3C//DTD SVG 1.1//EN" "http://www.w3.org/Graphics/SVG/1.1/DTD/svg11.dtd">
<svg version="1.1" id="Layer_1" xmlns="http://www.w3.org/2000/svg" xmlns:xlink="http://www.w3.org/1999/xlink" x="0px" y="0px"
	 width="200px" height="200px" viewBox="197.499 320.945 200 200" enable-background="new 197.499 320.945 200 200"
	 xml:space="preserve">
<path fill="#813996" d="M297.64,326.142c12.816,0,25.23,2.501,36.902,7.442c11.303,4.786,21.432,11.611,30.14,20.319
	c8.709,8.708,15.532,18.837,20.319,30.139c4.94,11.673,7.442,24.086,7.442,36.902s-2.502,25.229-7.442,36.901
	c-4.787,11.304-11.61,21.432-20.319,30.141c-8.708,8.708-18.837,15.532-30.14,20.319c-11.672,4.94-24.086,7.441-36.902,7.441
	c-12.815,0-25.229-2.501-36.902-7.441c-11.302-4.787-21.431-11.611-30.14-20.319c-8.708-8.709-15.532-18.837-20.319-30.141
	c-4.941-11.672-7.442-24.086-7.442-36.901c0-12.816,2.501-25.23,7.442-36.902c4.787-11.302,11.611-21.431,20.319-30.139
	c8.708-8.708,18.837-15.533,30.14-20.319C272.41,328.643,284.824,326.142,297.64,326.142 M297.64,322.127
	c-54.566,0-98.818,44.251-98.818,98.817s44.252,98.818,98.818,98.818s98.818-44.252,98.818-98.818S352.206,322.127,297.64,322.127
	L297.64,322.127z"/>
<g>
	<g>
		<path fill="#813996" d="M321.895,415.878c-0.009,0-0.019,0-0.027,0h-11.439v-11.468c0.016-2.313-1.847-4.201-4.16-4.216
			c-0.009,0-0.019,0-0.028,0h-16.526c-2.313,0-4.188,1.875-4.188,4.188v11.467h-11.439c-2.312-0.016-4.2,1.847-4.216,4.159
			c0,0.019,0,0.038,0,0.056v16.499c0,2.312,1.875,4.188,4.188,4.188h11.468v11.439c-0.015,2.312,1.847,4.2,4.16,4.216
			c0.009,0,0.019,0,0.028,0h16.499c2.312,0,4.188-1.875,4.188-4.188l0,0v-11.468h11.467c2.313,0.016,4.201-1.847,4.216-4.159
			c0-0.01,0-0.02,0-0.028v-16.499C326.084,417.753,324.209,415.878,321.895,415.878z M320.463,435.131h-12.845
			c-1.552,0-2.812,1.259-2.812,2.811v12.845h-13.659v-12.845c0-1.552-1.258-2.811-2.811-2.811h-12.844v-13.632h12.844
			c1.552,0,2.811-1.258,2.811-2.81v-12.874h13.632v12.845c0,1.552,1.258,2.811,2.811,2.811h12.873V435.131z"/>
	</g>
</g>
<g>
	<g>
		<path fill="#813996" d="M346.882,379.171L346.882,379.171h-23.159v-9.894c0.146-4.515-3.396-8.292-7.911-8.438
			c-0.229-0.007-0.46-0.005-0.69,0.007h-34.289c-4.511-0.235-8.358,3.231-8.594,7.742c-0.012,0.229-0.014,0.46-0.007,0.689v9.837
			h-23.159c-8.938,0-19.394,5.088-19.394,19.394v61.131c0,14.307,10.456,19.394,19.394,19.394h97.81
			c8.938,0,19.394-5.087,19.394-19.394v-61.075C366.275,384.259,355.848,379.171,346.882,379.171z M277.853,369.277
			c0-0.814,0-3.007,3.007-3.007h34.262c3.008,0,3.008,2.165,3.008,3.007v9.837h-40.276V369.277z M360.654,459.64
			c0,12.423-9.612,13.772-13.771,13.772h-97.811c-4.131,0-13.772-1.35-13.772-13.772v-61.075c0-12.423,9.612-13.772,13.772-13.772
			h97.81c4.132,0,13.772,1.349,13.772,13.772V459.64L360.654,459.64z"/>
	</g>
</g>
</svg>
